<svg width="323" height="97" viewBox="0 0 323 97" fill="none" xmlns="http://www.w3.org/2000/svg">
<path d="M143.414 73.0655H146.75V76.3295C145.974 77.1065 144.664 77.6025 143.511 77.6025C141.206 77.6025 139.24 75.6255 139.24 73.2835C139.24 70.9425 141.206 68.9765 143.511 68.9765C144.664 68.9765 145.974 69.4615 146.75 70.2515L146.107 70.9055C145.5 70.2625 144.42 69.8505 143.511 69.8505C141.715 69.8505 140.198 71.4265 140.198 73.2835C140.198 75.1525 141.715 76.7285 143.511 76.7285C144.287 76.7285 145.185 76.4255 145.804 75.9525V73.9625H143.414V73.0655Z" fill="#F6C45D"/>
<path d="M160.094 73.2833C160.094 71.4273 158.59 69.8503 156.794 69.8503C154.998 69.8503 153.482 71.4273 153.482 73.2833C153.482 75.1533 154.998 76.7293 156.794 76.7293C158.59 76.7293 160.094 75.1533 160.094 73.2833ZM152.523 73.2833C152.523 70.9423 154.489 68.9773 156.794 68.9773C159.112 68.9773 161.053 70.9423 161.053 73.2833C161.053 75.6263 159.112 77.6023 156.794 77.6023C154.489 77.6023 152.523 75.6263 152.523 73.2833Z" fill="#F6C45D"/>
<path d="M172.248 76.5593V77.4583H166.752V69.1223H167.699V76.5593H172.248Z" fill="#F6C45D"/>
<path d="M180.86 76.5953C182.947 76.5953 184.415 75.2253 184.415 73.2833C184.415 71.3543 182.947 69.9843 180.86 69.9843H178.992V76.5953H180.86ZM178.046 69.1223H180.86C183.505 69.1223 185.374 70.8453 185.374 73.2833C185.374 75.7233 183.505 77.4573 180.86 77.4573H178.046V69.1223Z" fill="#F6C45D"/>
<path d="M203.023 76.5953C204.054 76.5953 204.782 75.9523 204.782 75.0553C204.782 74.1573 204.054 73.5143 203.023 73.5143H200.245V76.5953H203.023ZM202.878 72.6533C203.799 72.6533 204.455 72.0943 204.455 71.3183C204.455 70.5413 203.799 69.9843 202.878 69.9843H200.245V72.6533H202.878ZM199.299 69.1223H203.12C204.467 69.1223 205.413 69.9843 205.413 71.1973C205.413 72.0833 204.976 72.5923 204.224 73.0293C205.183 73.5143 205.741 74.2663 205.741 75.1753C205.741 76.5113 204.71 77.4573 203.266 77.4573H199.299V69.1223Z" fill="#F6C45D"/>
<path d="M211.719 74.0003V69.1223H212.665V74.0003C212.665 75.6013 213.72 76.7423 215.201 76.7423C216.681 76.7423 217.736 75.6013 217.736 74.0003V69.1223H218.683V74.0003C218.683 76.1103 217.239 77.6023 215.201 77.6023C213.162 77.6023 211.719 76.1103 211.719 74.0003Z" fill="#F6C45D"/>
<path d="M230.291 76.5593V77.4583H224.795V69.1223H225.742V76.5593H230.291Z" fill="#F6C45D"/>
<path d="M241.269 76.5593V77.4583H235.773V69.1223H236.72V76.5593H241.269Z" fill="#F6C45D"/>
<path d="M246.885 69.1218H247.831V77.4578H246.885V69.1218Z" fill="#F6C45D"/>
<path d="M261.236 73.2833C261.236 71.4273 259.731 69.8503 257.935 69.8503C256.14 69.8503 254.623 71.4273 254.623 73.2833C254.623 75.1533 256.14 76.7293 257.935 76.7293C259.731 76.7293 261.236 75.1533 261.236 73.2833ZM253.665 73.2833C253.665 70.9423 255.631 68.9773 257.935 68.9773C260.254 68.9773 262.195 70.9423 262.195 73.2833C262.195 75.6263 260.254 77.6023 257.935 77.6023C255.631 77.6023 253.665 75.6263 253.665 73.2833Z" fill="#F6C45D"/>
<path d="M268.211 69.1223H269.157L274.326 75.9043V69.1223H275.272V77.4583H274.326L269.157 70.6753V77.4583H268.211V69.1223Z" fill="#F6C45D"/>
<path d="M288.424 72.9729V74.7439C306.286 74.5119 317.227 74.2009 317.227 73.8589C317.227 73.5159 306.286 73.2049 288.424 72.9729Z" fill="#E1B13D"/>
<path d="M130.841 72.9729C112.979 73.2049 102.038 73.5159 102.038 73.8589C102.038 74.2009 112.979 74.5119 130.841 74.7439V72.9729Z" fill="#E1B13D"/>
<mask id="mask0_40_18469" style="mask-type:luminance" maskUnits="userSpaceOnUse" x="171" y="19" width="30" height="40">
<path d="M194 19.8999C193.3 19.8999 192.7 20.4999 192.7 21.2999V39.9999C192.7 40.3999 192.1 40.5999 191.8 40.1999L180.8 20.0999C180.7 19.9999 180.7 19.8999 180.6 19.8999H179.1H172.3C171.7 19.8999 171.2 20.3999 171.2 20.9999V48.2999C171.2 48.7999 171.6 49.1999 172.1 49.1999H177.8C178.4 49.1999 178.8 48.7999 178.8 48.2999V34.8999C178.8 34.6999 179.1 34.5999 179.2 34.7999L191.9 58.1999C192.2 58.5999 192.6 58.8999 193.1 58.8999H199.3C200 58.8999 200.6 58.2999 200.6 57.5999V20.9999C200.6 20.3999 200.1 19.8999 199.5 19.8999H194Z" fill="white"/>
</mask>
<g mask="url(#mask0_40_18469)">
<path d="M687.557 314.168L626.108 -352.99L-263.067 -271.093L-201.618 396.066L687.557 314.168Z" fill="url(#paint0_linear_40_18469)"/>
</g>
<mask id="mask1_40_18469" style="mask-type:luminance" maskUnits="userSpaceOnUse" x="102" y="19" width="29" height="41">
<path d="M103 19.5C102.5 19.5 102 20 102 20.5V58.3C102 58.9 102.5 59.4 103 59.4H109.4C109.9 59.4 110.4 58.9 110.4 58.3V43C110.4 42.4 110.9 41.9 111.4 41.9H121.6C122.2 41.9 122.6 42.4 122.6 43V57.9C122.6 58.4 123.1 58.9 123.6 58.9H130C130.5 58.9 131 58.4 131 57.9V27.7C131 27.2 130.5 26.7 130 26.7H123.6C123.1 26.7 122.6 27.2 122.6 27.7V33.5C122.6 34.1 122.2 34.6 121.6 34.6H111.4C110.9 34.6 110.4 34.1 110.4 33.5V20.5C110.4 20 109.9 19.5 109.4 19.5H103Z" fill="white"/>
</mask>
<g mask="url(#mask1_40_18469)">
<path d="M687.557 314.168L626.108 -352.99L-263.067 -271.093L-201.618 396.066L687.557 314.168Z" fill="url(#paint1_linear_40_18469)"/>
</g>
<mask id="mask2_40_18469" style="mask-type:luminance" maskUnits="userSpaceOnUse" x="203" y="32" width="30" height="30">
<path d="M222.2 32.5H213.9H204.8C204.3 32.5 203.8 32.9 203.8 33.5V38.8C203.8 39.3 204.3 39.8 204.8 39.8H212.8C213.4 39.8 213.9 40.3 213.9 40.8V60.6C213.9 61.2 214.3 61.7 214.9 61.7H221.2C221.8 61.7 222.2 61.2 222.2 60.6V40.8C222.2 40.3 222.7 39.8 223.3 39.8H231.3C231.8 39.8 232.3 39.3 232.3 38.8V33.5C232.3 32.9 231.8 32.5 231.3 32.5H222.2Z" fill="white"/>
</mask>
<g mask="url(#mask2_40_18469)">
<path d="M687.557 314.168L626.108 -352.99L-263.067 -271.093L-201.618 396.066L687.557 314.168Z" fill="url(#paint2_linear_40_18469)"/>
</g>
<mask id="mask3_40_18469" style="mask-type:luminance" maskUnits="userSpaceOnUse" x="235" y="19" width="24" height="40">
<path d="M243.9 19.8999H236.5C235.9 19.8999 235.5 20.2999 235.5 20.8999V27.7999V51.4999V57.9999C235.5 58.4999 235.9 58.8999 236.5 58.8999H243.9H257.9C258.4 58.8999 258.8 58.4999 258.8 57.9999V52.4999C258.8 51.9999 258.4 51.4999 257.9 51.4999H244.8C244.3 51.4999 243.9 51.0999 243.9 50.5999V42.9999C243.9 42.4999 244.3 41.9999 244.8 41.9999H256.8C257.3 41.9999 257.8 41.5999 257.8 41.0999V35.0999C257.8 34.5999 257.3 34.1999 256.8 34.1999H244.8C244.3 34.1999 243.9 33.6999 243.9 33.1999V28.6999C243.9 28.1999 244.3 27.7999 244.8 27.7999H251.7C252.3 27.7999 252.7 27.3999 252.7 26.8999V20.8999C252.7 20.2999 252.3 19.8999 251.7 19.8999H243.9Z" fill="white"/>
</mask>
<g mask="url(#mask3_40_18469)">
<path d="M687.557 314.168L626.108 -352.99L-263.067 -271.093L-201.618 396.066L687.557 314.168Z" fill="url(#paint3_linear_40_18469)"/>
</g>
<mask id="mask4_40_18469" style="mask-type:luminance" maskUnits="userSpaceOnUse" x="136" y="19" width="30" height="42">
<path d="M159.2 19.5C158.1 19.5 157.2 20.4 157.2 21.5V47.2C156.7 50.1 154.2 52.3 151.1 52.3C148.1 52.3 145.5 50.1 145 47.2V26.1C145 25.4 144.4 24.8 143.7 24.8H138C137.3 24.8 136.7 25.4 136.7 26.1V32.6V46.4V47.2C137.1 54.4 143.1 60.1 150.4 60.1H151.9C159.2 60.1 165.1 54.4 165.6 47.2V46.4V32.6V21.5C165.6 20.4 164.7 19.5 163.6 19.5H159.2Z" fill="white"/>
</mask>
<g mask="url(#mask4_40_18469)">
<path d="M687.557 314.168L626.108 -352.99L-263.067 -271.093L-201.618 396.066L687.557 314.168Z" fill="url(#paint4_linear_40_18469)"/>
</g>
<mask id="mask5_40_18469" style="mask-type:luminance" maskUnits="userSpaceOnUse" x="263" y="19" width="32" height="41">
<path d="M271.9 19.8999H264.6C264 19.8999 263.5 20.3999 263.5 20.9999V27.2999V37.4999V44.7999V48.7999C263.5 49.6999 264.2 50.2999 265 50.2999H270.7C271.4 50.2999 271.9 49.7999 271.9 49.0999V44.7999H275.3L284.4 58.5999C284.8 59.1999 285.4 59.5999 286.1 59.5999L293.3 59.4999C294.1 59.3999 294.6 58.4999 294.2 57.7999L284.4 42.7999C288.1 41.2999 290.3 36.5999 290.4 31.8999C290.4 26.0999 286.2 21.1999 280.7 20.1999L278.4 19.8999H271.9ZM271.9 36.5999V28.4999C271.9 27.7999 272.4 27.2999 273.1 27.2999H277C279.5 27.5999 281.4 29.7999 281.4 32.3999C281.4 34.9999 279.4 37.1999 276.8 37.4999H272.8C272.3 37.4999 271.9 37.0999 271.9 36.5999Z" fill="white"/>
</mask>
<g mask="url(#mask5_40_18469)">
<path d="M687.557 314.168L626.108 -352.99L-263.067 -271.093L-201.618 396.066L687.557 314.168Z" fill="url(#paint5_linear_40_18469)"/>
</g>
<mask id="mask6_40_18469" style="mask-type:luminance" maskUnits="userSpaceOnUse" x="294" y="19" width="29" height="41">
<path d="M294.8 30.4C294.7 32.2 294.1 39.8 302.3 42.8C304.8 43.7 313.5 44.9 313.7 47.9C314.3 53.1 306.8 52.5 305.3 52.4C301.5 51.9 298 49.8 296.2 48.5C295.5 48.1 294.7 48.6 294.7 49.3V55.2C294.7 55.8 295.1 56.4 295.6 56.7C297.1 57.5 298.7 58.3 300.3 58.7C305 59.9 311.3 60.4 315.6 58.1C322.2 54.5 322.4 48.4 322.5 47.1C322.5 46.1 323.1 38.7 314 35.8C310.9 34.9 303.5 34.3 303.6 30.5C303.6 27.6 306.4 26.1 309 26.1C314 26.1 316.8 28.2 318.9 29.7C319.8 30.2 320.9 29.6 320.9 28.6L320.8 23C320.8 22.4 320.4 21.8 319.9 21.5C317.3 20.1 313.7 19.2 310.7 19.1C310.2 19 309.7 19 309.2 19C301.2 19 295.5 23.1 294.8 30.4Z" fill="white"/>
</mask>
<g mask="url(#mask6_40_18469)">
<path d="M687.557 314.168L626.108 -352.99L-263.067 -271.093L-201.618 396.066L687.557 314.168Z" fill="url(#paint6_linear_40_18469)"/>
</g>
<mask id="mask7_40_18469" style="mask-type:luminance" maskUnits="userSpaceOnUse" x="172" y="21" width="28" height="34">
<path d="M194 21C193.9 21 193.7 21.1 193.7 21.3V40C193.7 40.8 193.1 41.5 192.2 41.5C191.7 41.5 191.2 41.2 190.9 40.7L180.1 21H179.1H172.2V48.2H177.7V34.9C177.7 34.2 178.3 33.6 179 33.6C179.5 33.6 179.9 33.9 180.1 34.3L191 54.3C193.8 54.2 196.7 54 199.5 53.8V21H194Z" fill="white"/>
</mask>
<g mask="url(#mask7_40_18469)">
<path d="M-247.567 -273.551L-205.095 374.146L672.057 316.627L629.585 -331.069L-247.567 -273.551Z" fill="url(#paint7_linear_40_18469)"/>
</g>
<mask id="mask8_40_18469" style="mask-type:luminance" maskUnits="userSpaceOnUse" x="103" y="20" width="27" height="35">
<path d="M103 53.8C105.1 53.9 107.3 54 109.4 54.1V43C109.4 41.8 110.3 40.9 111.4 40.9H121.6C122.7 40.9 123.6 41.8 123.6 43V54.3C125.7 54.3 127.8 54.3 129.9 54.3L130 27.8L123.6 27.7V33.5C123.6 34.7 122.7 35.6 121.6 35.6H111.4C110.3 35.6 109.4 34.7 109.4 33.5V20.5H103.1L103 53.8Z" fill="white"/>
</mask>
<g mask="url(#mask8_40_18469)">
<path d="M-247.567 -273.551L-205.095 374.146L672.057 316.627L629.585 -331.069L-247.567 -273.551Z" fill="url(#paint8_linear_40_18469)"/>
</g>
<mask id="mask9_40_18469" style="mask-type:luminance" maskUnits="userSpaceOnUse" x="204" y="33" width="28" height="20">
<path d="M204.8 33.5V38.8H212.8C214 38.8 214.9 39.7 214.9 40.8V52.3C217 52 219.1 51.8 221.2 51.5V40.8C221.2 39.7 222.1 38.8 223.3 38.8H231.3V33.5H204.8Z" fill="white"/>
</mask>
<g mask="url(#mask9_40_18469)">
<path d="M-247.567 -273.551L-205.095 374.146L672.057 316.627L629.585 -331.069L-247.567 -273.551Z" fill="url(#paint9_linear_40_18469)"/>
</g>
<mask id="mask10_40_18469" style="mask-type:luminance" maskUnits="userSpaceOnUse" x="236" y="21" width="21" height="29">
<path d="M236.6 21V49.5C238.7 49.2 240.8 49 242.9 48.7V43C242.9 41.9 243.7 41 244.8 41H256.7V35.2H244.8C243.7 35.2 242.9 34.3 242.9 33.2V28.7C242.9 27.7 243.7 26.8 244.8 26.8H251.6V21H236.6Z" fill="white"/>
</mask>
<g mask="url(#mask10_40_18469)">
<path d="M-247.567 -273.551L-205.095 374.146L672.057 316.627L629.585 -331.069L-247.567 -273.551Z" fill="url(#paint10_linear_40_18469)"/>
</g>
<mask id="mask11_40_18469" style="mask-type:luminance" maskUnits="userSpaceOnUse" x="137" y="20" width="28" height="35">
<path d="M159.2 20.5C158.7 20.5 158.2 21 158.2 21.5V46.1H158.5L158.2 47.4C157.6 50.8 154.6 53.4 151.1 53.4C147.6 53.4 144.6 50.8 144 47.4L143.8 46.1H144V26.1C144 26 143.9 25.8 143.7 25.8H138C137.8 25.8 137.7 26 137.7 26.1V46.7V47.1C137.9 49.9 138.9 52.4 140.6 54.4C143.5 54.4 146.5 54.4 149.4 54.4C153.5 54.5 157.5 54.5 161.5 54.5C163.2 52.5 164.3 50 164.5 47.1V46.8V21.5C164.5 21 164.1 20.5 163.6 20.5H159.2Z" fill="white"/>
</mask>
<g mask="url(#mask11_40_18469)">
<path d="M-247.567 -273.551L-205.095 374.146L672.057 316.627L629.585 -331.069L-247.567 -273.551Z" fill="url(#paint11_linear_40_18469)"/>
</g>
<mask id="mask12_40_18469" style="mask-type:luminance" maskUnits="userSpaceOnUse" x="264" y="21" width="26" height="25">
<path d="M271.9 21H264.6V45.7C266.7 45.4 268.8 45.1 270.9 44.8V43.8H275.9L276.1 44.1C276.2 44.1 276.3 44.1 276.4 44.1C278.7 43.7 281 43.4 283.3 43L282.8 42.4L284 41.9C287.1 40.6 289.2 36.6 289.3 31.9C289.3 26.7 285.6 22.2 280.6 21.2L278.4 21H271.9ZM270.9 36.6V28.5C270.9 27.3 271.9 26.3 273.1 26.3H277H277.1C280.2 26.7 282.5 29.3 282.5 32.4C282.5 35.6 280.1 38.2 277 38.5H276.9H272.8C271.7 38.5 270.9 37.6 270.9 36.6Z" fill="white"/>
</mask>
<g mask="url(#mask12_40_18469)">
<path d="M-247.567 -273.551L-205.095 374.146L672.057 316.627L629.585 -331.069L-247.567 -273.551Z" fill="url(#paint12_linear_40_18469)"/>
</g>
<mask id="mask13_40_18469" style="mask-type:luminance" maskUnits="userSpaceOnUse" x="295" y="20" width="25" height="21">
<path d="M295.9 30.4998C295.5 35.0998 297 38.5998 300.4 40.6998C301.9 40.4998 303.4 40.3998 304.9 40.1998C309.1 39.7998 313.3 39.2999 317.4 38.5999C316.4 37.8999 315.2 37.2998 313.7 36.7998C313.1 36.5998 312.2 36.3998 311.3 36.1998C307.6 35.3998 302.5 34.2998 302.6 30.4998C302.6 26.9998 305.9 25.0999 309 25.0999C314.1 25.0999 317.1 27.0999 319.2 28.5999L319.5 28.7998C319.6 28.7998 319.6 28.7998 319.6 28.7998C319.7 28.7998 319.7 28.7998 319.8 28.7998C319.8 28.6998 319.8 28.6999 319.8 28.5999V22.9998C319.8 22.7998 319.6 22.4998 319.4 22.3998C317.2 21.1998 313.8 20.2999 310.6 20.0999C310.2 20.0999 309.7 20.0999 309.2 20.0999C301.5 20.0999 296.5 23.9998 295.9 30.4998Z" fill="white"/>
</mask>
<g mask="url(#mask13_40_18469)">
<path d="M-247.567 -273.552L-205.095 374.145L672.057 316.627L629.586 -331.07L-247.567 -273.552Z" fill="url(#paint13_linear_40_18469)"/>
</g>
<mask id="mask14_40_18469" style="mask-type:luminance" maskUnits="userSpaceOnUse" x="0" y="0" width="25" height="97">
<path d="M23.8 0.0999908C23.1 0.399991 22.3 0.999991 22 1.09999C7.9 10.8 0 23.5 0 36.7V94.2C0 95.5 1.00001 96.5 2.20001 96.5H22.5C23.8 96.5 24.8 95.5 24.8 94.2V0.599991C24.8 0.199991 24.5 0 24.2 0C24 0 23.9 -9.15676e-06 23.8 0.0999908Z" fill="white"/>
</mask>
<g mask="url(#mask14_40_18469)">
<path d="M457.49 420.976V-174.3H-384.4V420.976H457.49Z" fill="url(#paint14_linear_40_18469)"/>
</g>
<mask id="mask15_40_18469" style="mask-type:luminance" maskUnits="userSpaceOnUse" x="32" y="43" width="42" height="54">
<path d="M35.1002 43.0999C33.9002 43.0999 32.9001 44.0999 32.9001 45.2999V56.3999C32.9001 57.5999 33.9002 58.5999 35.2002 58.5999H46.1002C47.3002 58.5999 48.3002 59.5999 48.3002 60.8999V95.7999C48.3002 96.0999 48.6002 96.2999 48.8002 96.0999C49.0002 96.0999 49.1002 95.9999 49.1002 95.8999C64.5002 86.0999 73.1002 72.8999 73.1002 59.1999V45.1999C73.1002 43.9999 72.2002 43.0999 71.0002 43.0999H35.1002Z" fill="white"/>
</mask>
<g mask="url(#mask15_40_18469)">
<path d="M457.49 420.976V-174.3H-384.4V420.976H457.49Z" fill="url(#paint15_linear_40_18469)"/>
</g>
<g clip-path="url(#clip0_40_18469)">
<path d="M-384.174 -188.098L-394.156 420.816L457.264 434.774L467.246 -174.14L-384.174 -188.098Z" fill="url(#paint16_linear_40_18469)"/>
</g>
<mask id="mask16_40_18469" style="mask-type:luminance" maskUnits="userSpaceOnUse" x="34" y="44" width="38" height="14">
<path d="M35.1001 44.3C34.9001 44.3 34.6001 44.4 34.4001 44.6C34.2001 44.8 34.1001 45 34.1001 45.3V56.4C34.1001 57 34.6001 57.4 35.2001 57.4H44.0001C53.6001 54.5 63.5001 51.4 71.9001 45.9V45.2C71.9001 44.7 71.5001 44.3 71.0001 44.3H35.1001Z" fill="white"/>
</mask>
<g mask="url(#mask16_40_18469)">
<path d="M-384.174 -188.098L-394.156 420.816L457.264 434.774L467.246 -174.14L-384.174 -188.098Z" fill="url(#paint17_linear_40_18469)"/>
</g>
<defs>
<linearGradient id="paint0_linear_40_18469" x1="188.73" y1="70.3989" x2="183.875" y2="17.6872" gradientUnits="userSpaceOnUse">
<stop stop-color="#D7A532"/>
<stop offset="0.194048" stop-color="#E2B33F"/>
<stop offset="0.405952" stop-color="#FDE469"/>
<stop offset="0.438095" stop-color="#FFEA70"/>
<stop offset="1" stop-color="#FFF9D7"/>
</linearGradient>
<linearGradient id="paint1_linear_40_18469" x1="119.937" y1="76.7351" x2="115.082" y2="24.0234" gradientUnits="userSpaceOnUse">
<stop stop-color="#D7A532"/>
<stop offset="0.194048" stop-color="#E2B33F"/>
<stop offset="0.405952" stop-color="#FDE469"/>
<stop offset="0.438095" stop-color="#FFEA70"/>
<stop offset="1" stop-color="#FFF9D7"/>
</linearGradient>
<linearGradient id="paint2_linear_40_18469" x1="219.935" y1="67.5247" x2="215.08" y2="14.8131" gradientUnits="userSpaceOnUse">
<stop stop-color="#D7A532"/>
<stop offset="0.194048" stop-color="#E2B33F"/>
<stop offset="0.405952" stop-color="#FDE469"/>
<stop offset="0.438095" stop-color="#FFEA70"/>
<stop offset="1" stop-color="#FFF9D7"/>
</linearGradient>
<linearGradient id="paint3_linear_40_18469" x1="249.514" y1="64.8004" x2="244.659" y2="12.0887" gradientUnits="userSpaceOnUse">
<stop stop-color="#D7A532"/>
<stop offset="0.194048" stop-color="#E2B33F"/>
<stop offset="0.405952" stop-color="#FDE469"/>
<stop offset="0.438095" stop-color="#FFEA70"/>
<stop offset="1" stop-color="#FFF9D7"/>
</linearGradient>
<linearGradient id="paint4_linear_40_18469" x1="154.231" y1="73.5764" x2="149.376" y2="20.8648" gradientUnits="userSpaceOnUse">
<stop stop-color="#D7A532"/>
<stop offset="0.194048" stop-color="#E2B33F"/>
<stop offset="0.405952" stop-color="#FDE469"/>
<stop offset="0.438095" stop-color="#FFEA70"/>
<stop offset="1" stop-color="#FFF9D7"/>
</linearGradient>
<linearGradient id="paint5_linear_40_18469" x1="281.124" y1="61.889" x2="276.269" y2="9.17731" gradientUnits="userSpaceOnUse">
<stop stop-color="#D7A532"/>
<stop offset="0.194048" stop-color="#E2B33F"/>
<stop offset="0.405952" stop-color="#FDE469"/>
<stop offset="0.438095" stop-color="#FFEA70"/>
<stop offset="1" stop-color="#FFF9D7"/>
</linearGradient>
<linearGradient id="paint6_linear_40_18469" x1="310.368" y1="59.1953" x2="305.513" y2="6.48367" gradientUnits="userSpaceOnUse">
<stop stop-color="#D7A532"/>
<stop offset="0.194048" stop-color="#E2B33F"/>
<stop offset="0.405952" stop-color="#FDE469"/>
<stop offset="0.438095" stop-color="#FFEA70"/>
<stop offset="1" stop-color="#FFF9D7"/>
</linearGradient>
<linearGradient id="paint7_linear_40_18469" x1="184.653" y1="19.0314" x2="187.427" y2="61.3394" gradientUnits="userSpaceOnUse">
<stop stop-color="#D7A532"/>
<stop offset="0.194048" stop-color="#E2B33F"/>
<stop offset="0.405952" stop-color="#FDE469"/>
<stop offset="0.438095" stop-color="#FFEA70"/>
<stop offset="1" stop-color="#FFF9D7"/>
</linearGradient>
<linearGradient id="paint8_linear_40_18469" x1="115.592" y1="23.56" x2="118.367" y2="65.868" gradientUnits="userSpaceOnUse">
<stop stop-color="#D7A532"/>
<stop offset="0.194048" stop-color="#E2B33F"/>
<stop offset="0.405952" stop-color="#FDE469"/>
<stop offset="0.438095" stop-color="#FFEA70"/>
<stop offset="1" stop-color="#FFF9D7"/>
</linearGradient>
<linearGradient id="paint9_linear_40_18469" x1="216.349" y1="16.953" x2="219.123" y2="59.261" gradientUnits="userSpaceOnUse">
<stop stop-color="#D7A532"/>
<stop offset="0.194048" stop-color="#E2B33F"/>
<stop offset="0.405952" stop-color="#FDE469"/>
<stop offset="0.438095" stop-color="#FFEA70"/>
<stop offset="1" stop-color="#FFF9D7"/>
</linearGradient>
<linearGradient id="paint10_linear_40_18469" x1="245.32" y1="15.0533" x2="248.094" y2="57.3613" gradientUnits="userSpaceOnUse">
<stop stop-color="#D7A532"/>
<stop offset="0.194048" stop-color="#E2B33F"/>
<stop offset="0.405952" stop-color="#FDE469"/>
<stop offset="0.438095" stop-color="#FFEA70"/>
<stop offset="1" stop-color="#FFF9D7"/>
</linearGradient>
<linearGradient id="paint11_linear_40_18469" x1="150.054" y1="21.3002" x2="152.828" y2="63.6083" gradientUnits="userSpaceOnUse">
<stop stop-color="#D7A532"/>
<stop offset="0.194048" stop-color="#E2B33F"/>
<stop offset="0.405952" stop-color="#FDE469"/>
<stop offset="0.438095" stop-color="#FFEA70"/>
<stop offset="1" stop-color="#FFF9D7"/>
</linearGradient>
<linearGradient id="paint12_linear_40_18469" x1="275.62" y1="13.0664" x2="278.394" y2="55.3744" gradientUnits="userSpaceOnUse">
<stop stop-color="#D7A532"/>
<stop offset="0.194048" stop-color="#E2B33F"/>
<stop offset="0.405952" stop-color="#FDE469"/>
<stop offset="0.438095" stop-color="#FFEA70"/>
<stop offset="1" stop-color="#FFF9D7"/>
</linearGradient>
<linearGradient id="paint13_linear_40_18469" x1="306.376" y1="11.0494" x2="309.15" y2="53.3574" gradientUnits="userSpaceOnUse">
<stop stop-color="#D7A532"/>
<stop offset="0.194048" stop-color="#E2B33F"/>
<stop offset="0.405952" stop-color="#FDE469"/>
<stop offset="0.438095" stop-color="#FFEA70"/>
<stop offset="1" stop-color="#FFF9D7"/>
</linearGradient>
<linearGradient id="paint14_linear_40_18469" x1="12.3848" y1="106.956" x2="12.3848" y2="-18.8313" gradientUnits="userSpaceOnUse">
<stop stop-color="#E1B13D"/>
<stop offset="0.502381" stop-color="#FADE64"/>
<stop offset="0.628571" stop-color="#FFEA6F"/>
<stop offset="1" stop-color="#FFF9D6"/>
</linearGradient>
<linearGradient id="paint15_linear_40_18469" x1="52.9991" y1="106.956" x2="52.9991" y2="-18.8315" gradientUnits="userSpaceOnUse">
<stop stop-color="#E1B13D"/>
<stop offset="0.502381" stop-color="#FADE64"/>
<stop offset="0.628571" stop-color="#FFEA6F"/>
<stop offset="1" stop-color="#FFF9D6"/>
</linearGradient>
<linearGradient id="paint16_linear_40_18469" x1="60.9986" y1="-1.32348" x2="59.0318" y2="118.651" gradientUnits="userSpaceOnUse">
<stop stop-color="#D7A532"/>
<stop offset="0.194048" stop-color="#E2B33F"/>
<stop offset="0.405952" stop-color="#FDE469"/>
<stop offset="0.438095" stop-color="#FFEA70"/>
<stop offset="1" stop-color="#FFE67E"/>
</linearGradient>
<linearGradient id="paint17_linear_40_18469" x1="53.8573" y1="-1.44053" x2="51.8905" y2="118.534" gradientUnits="userSpaceOnUse">
<stop stop-color="#D7A532"/>
<stop offset="0.194048" stop-color="#E2B33F"/>
<stop offset="0.405952" stop-color="#FDE469"/>
<stop offset="0.438095" stop-color="#FFEA70"/>
<stop offset="1" stop-color="#FFE67E"/>
</linearGradient>
<clipPath id="clip0_40_18469">
<rect x="49.5" y="0.5" width="22.4" height="32.2" rx="1" fill="white"/>
</clipPath>
</defs>
</svg>
